<svg width="56" height="56" viewBox="0 0 56 56" fill="none" xmlns="http://www.w3.org/2000/svg">
<g id="ic:round-search">
<path id="Vector" d="M36.1666 32.6667H34.3233L33.6699 32.0367C35.1282 30.3426 36.1939 28.3471 36.7909 26.1931C37.3879 24.0391 37.5014 21.7797 37.1233 19.5767C36.0266 13.09 30.6133 7.91 24.0799 7.11667C21.783 6.82609 19.4501 7.0648 17.2597 7.81454C15.0692 8.56428 13.0793 9.80518 11.4422 11.4423C9.80512 13.0794 8.56422 15.0693 7.81448 17.2597C7.06474 19.4502 6.82603 21.7831 7.11661 24.08C7.90994 30.6133 13.0899 36.0267 19.5766 37.1233C21.7796 37.5015 24.039 37.388 26.193 36.791C28.3471 36.194 30.3425 35.1282 32.0366 33.67L32.6666 34.3233V36.1667L42.5833 46.0833C43.5399 47.04 45.1033 47.04 46.0599 46.0833C47.0166 45.1267 47.0166 43.5633 46.0599 42.6067L36.1666 32.6667ZM22.1666 32.6667C16.3566 32.6667 11.6666 27.9767 11.6666 22.1667C11.6666 16.3567 16.3566 11.6667 22.1666 11.6667C27.9766 11.6667 32.6666 16.3567 32.6666 22.1667C32.6666 27.9767 27.9766 32.6667 22.1666 32.6667Z" fill="#758BFD"/>
</g>
</svg>
